# 3ds Max Wavefront OBJ Exporter v0.97b - (c)2007 guruware
# File Created: 07.05.2017 20:27:04

#
# object BraceWheel1
#

v  -0.0541 -0.0648 0.4937
v  -0.0541 -0.0648 -0.4959
v  0.0566 -0.0648 -0.4959
v  0.0566 -0.0648 0.4937
v  -0.0541 0.0459 0.4937
v  0.0566 0.0459 0.4937
v  0.0566 0.0459 -0.4959
v  -0.0541 0.0459 -0.4959
# 8 vertices

vn 0.0000 -1.0000 -0.0000
vn 0.0000 1.0000 -0.0000
vn 0.0000 0.0000 1.0000
vn 1.0000 0.0000 -0.0000
vn 0.0000 0.0000 -1.0000
vn -1.0000 0.0000 -0.0000
# 6 vertex normals

vt 1.0000 0.0000 0.0000
vt 1.0000 1.0000 0.0000
vt 0.0000 1.0000 0.0000
vt 0.0000 0.0000 0.0000
# 4 texture coords

g BraceWheel1
s 2
f 1/1/1 2/2/1 3/3/1 
f 3/3/1 4/4/1 1/1/1 
s 4
f 5/4/2 6/1/2 7/2/2 
f 7/2/2 8/3/2 5/4/2 
s 8
f 1/4/3 4/1/3 6/2/3 
f 6/2/3 5/3/3 1/4/3 
s 16
f 4/4/4 3/1/4 7/2/4 
f 7/2/4 6/3/4 4/4/4 
s 32
f 3/4/5 2/1/5 8/2/5 
f 8/2/5 7/3/5 3/4/5 
s 64
f 2/4/6 1/1/6 5/2/6 
f 5/2/6 8/3/6 2/4/6 
# 12 faces

#
# object BraceWheel2
#

v  -0.0541 -0.4887 -0.0532
v  -0.0541 0.5009 -0.0532
v  0.0566 0.5009 -0.0532
v  0.0566 -0.4887 -0.0532
v  -0.0541 -0.4887 0.0575
v  0.0566 -0.4887 0.0575
v  0.0566 0.5009 0.0575
v  -0.0541 0.5009 0.0575
# 8 vertices

vn 0.0000 -0.0000 -1.0000
vn 0.0000 0.0000 1.0000
vn 0.0000 -1.0000 0.0000
vn 1.0000 0.0000 -0.0000
vn 0.0000 1.0000 -0.0000
vn -1.0000 0.0000 -0.0000
# 6 vertex normals

vt 1.0000 0.0000 0.0000
vt 1.0000 1.0000 0.0000
vt 0.0000 1.0000 0.0000
vt 0.0000 0.0000 0.0000
# 4 texture coords

g BraceWheel2
s 2
f 9/5/7 10/6/7 11/7/7 
f 11/7/7 12/8/7 9/5/7 
s 4
f 13/8/8 14/5/8 15/6/8 
f 15/6/8 16/7/8 13/8/8 
s 8
f 9/8/9 12/5/9 14/6/9 
f 14/6/9 13/7/9 9/8/9 
s 16
f 12/8/10 11/5/10 15/6/10 
f 15/6/10 14/7/10 12/8/10 
s 32
f 11/8/11 10/5/11 16/6/11 
f 16/6/11 15/7/11 11/8/11 
s 64
f 10/8/12 9/5/12 13/6/12 
f 13/6/12 16/7/12 10/8/12 
# 12 faces

#
# object Wheel
#

v  -0.5561 0.0033 -0.5548
v  0.5512 -0.3221 -0.4490
v  -0.5561 -0.3221 -0.4490
v  0.5512 0.0033 -0.5548
v  0.5512 -0.2669 -0.3730
v  0.5512 0.0033 -0.4608
v  -0.5561 -0.2669 -0.3730
v  -0.5561 0.0033 -0.4608
v  0.5512 -0.5232 -0.1722
v  -0.5561 -0.5232 -0.1722
v  0.5512 -0.4338 -0.1431
v  -0.5561 -0.4338 -0.1431
v  0.5512 -0.5232 0.1700
v  -0.5561 -0.5232 0.1700
v  0.5512 -0.4338 0.1410
v  -0.5561 -0.4338 0.1410
v  0.5512 -0.3221 0.4468
v  -0.5561 -0.3221 0.4468
v  0.5512 -0.2669 0.3708
v  -0.5561 -0.2669 0.3708
v  0.5512 0.0033 0.5526
v  -0.5561 0.0033 0.5526
v  0.5512 0.0033 0.4586
v  -0.5561 0.0033 0.4586
v  0.5512 0.3288 0.4468
v  -0.5561 0.3288 0.4468
v  0.5512 0.2735 0.3708
v  -0.5561 0.2735 0.3708
v  0.5512 0.5299 0.1700
v  -0.5561 0.5299 0.1700
v  0.5512 0.4405 0.1410
v  -0.5561 0.4405 0.1410
v  0.5512 0.5299 -0.1722
v  -0.5561 0.5299 -0.1722
v  0.5512 0.4405 -0.1431
v  -0.5561 0.4405 -0.1431
v  0.5512 0.3288 -0.4490
v  -0.5561 0.3288 -0.4490
v  0.5512 0.2735 -0.3730
v  -0.5561 0.2735 -0.3730
# 40 vertices

vn -0.0000 0.0000 -1.0000
vn 0.0000 -0.5878 -0.8090
vn 1.0000 0.0000 -0.0000
vn 0.0000 -0.0000 1.0000
vn -0.0000 0.5878 0.8090
vn -1.0000 -0.0000 -0.0000
vn 0.0000 -0.9511 -0.3090
vn -0.0000 0.9511 0.3090
vn 0.0000 -0.9511 0.3090
vn -0.0000 0.9511 -0.3090
vn 0.0000 -0.5878 0.8090
vn -0.0000 0.5878 -0.8090
vn -0.0000 0.0000 1.0000
vn 0.0000 -0.0000 -1.0000
# 14 vertex normals

vt 0.0000 0.0000 0.0000
vt 0.2500 0.1000 0.0000
vt 0.0000 0.1000 0.0000
vt 0.2500 0.0000 0.0000
vt 0.5000 0.1000 0.0000
vt 0.5000 0.0000 0.0000
vt 0.7500 0.1000 0.0000
vt 0.7500 0.0000 0.0000
vt 1.0000 0.1000 0.0000
vt 1.0000 0.0000 0.0000
vt 0.2500 0.2000 0.0000
vt 0.0000 0.2000 0.0000
vt 0.5000 0.2000 0.0000
vt 0.7500 0.2000 0.0000
vt 1.0000 0.2000 0.0000
vt 0.2500 0.3000 0.0000
vt 0.0000 0.3000 0.0000
vt 0.5000 0.3000 0.0000
vt 0.7500 0.3000 0.0000
vt 1.0000 0.3000 0.0000
vt 0.2500 0.4000 0.0000
vt 0.0000 0.4000 0.0000
vt 0.5000 0.4000 0.0000
vt 0.7500 0.4000 0.0000
vt 1.0000 0.4000 0.0000
vt 0.2500 0.5000 0.0000
vt 0.0000 0.5000 0.0000
vt 0.5000 0.5000 0.0000
vt 0.7500 0.5000 0.0000
vt 1.0000 0.5000 0.0000
vt 0.2500 0.6000 0.0000
vt 0.0000 0.6000 0.0000
vt 0.5000 0.6000 0.0000
vt 0.7500 0.6000 0.0000
vt 1.0000 0.6000 0.0000
vt 0.2500 0.7000 0.0000
vt 0.0000 0.7000 0.0000
vt 0.5000 0.7000 0.0000
vt 0.7500 0.7000 0.0000
vt 1.0000 0.7000 0.0000
vt 0.2500 0.8000 0.0000
vt 0.0000 0.8000 0.0000
vt 0.5000 0.8000 0.0000
vt 0.7500 0.8000 0.0000
vt 1.0000 0.8000 0.0000
vt 0.2500 0.9000 0.0000
vt 0.0000 0.9000 0.0000
vt 0.5000 0.9000 0.0000
vt 0.7500 0.9000 0.0000
vt 1.0000 0.9000 0.0000
vt 0.2500 1.0000 0.0000
vt 0.0000 1.0000 0.0000
vt 0.5000 1.0000 0.0000
vt 0.7500 1.0000 0.0000
vt 1.0000 1.0000 0.0000
# 55 texture coords

g Wheel
s 2
f 17/9/13 18/10/14 19/11/14 
f 17/9/13 20/12/13 18/10/14 
s 4
f 20/12/15 21/13/15 18/10/15 
f 20/12/15 22/14/15 21/13/15 
s 2
f 22/14/16 23/15/17 21/13/17 
f 22/14/16 24/16/16 23/15/17 
s 4
f 24/16/18 19/17/18 23/15/18 
f 24/16/18 17/18/18 19/17/18 
s 2
f 19/11/14 25/19/19 26/20/19 
f 19/11/14 18/10/14 25/19/19 
s 4
f 18/10/15 27/21/15 25/19/15 
f 18/10/15 21/13/15 27/21/15 
s 2
f 21/13/17 28/22/20 27/21/20 
f 21/13/17 23/15/17 28/22/20 
s 4
f 23/15/18 26/23/18 28/22/18 
f 23/15/18 19/17/18 26/23/18 
s 2
f 26/20/19 29/24/21 30/25/21 
f 26/20/19 25/19/19 29/24/21 
s 4
f 25/19/15 31/26/15 29/24/15 
f 25/19/15 27/21/15 31/26/15 
s 2
f 27/21/20 32/27/22 31/26/22 
f 27/21/20 28/22/20 32/27/22 
s 4
f 28/22/18 30/28/18 32/27/18 
f 28/22/18 26/23/18 30/28/18 
s 2
f 30/25/21 33/29/23 34/30/23 
f 30/25/21 29/24/21 33/29/23 
s 4
f 29/24/15 35/31/15 33/29/15 
f 29/24/15 31/26/15 35/31/15 
s 2
f 31/26/22 36/32/24 35/31/24 
f 31/26/22 32/27/22 36/32/24 
s 4
f 32/27/18 34/33/18 36/32/18 
f 32/27/18 30/28/18 34/33/18 
s 2
f 34/30/23 37/34/25 38/35/25 
f 34/30/23 33/29/23 37/34/25 
s 4
f 33/29/15 39/36/15 37/34/15 
f 33/29/15 35/31/15 39/36/15 
s 2
f 35/31/24 40/37/26 39/36/26 
f 35/31/24 36/32/24 40/37/26 
s 4
f 36/32/18 38/38/18 40/37/18 
f 36/32/18 34/33/18 38/38/18 
s 2
f 38/35/25 41/39/17 42/40/17 
f 38/35/25 37/34/25 41/39/17 
s 4
f 37/34/15 43/41/15 41/39/15 
f 37/34/15 39/36/15 43/41/15 
s 2
f 39/36/26 44/42/14 43/41/14 
f 39/36/26 40/37/26 44/42/14 
s 4
f 40/37/18 42/43/18 44/42/18 
f 40/37/18 38/38/18 42/43/18 
s 2
f 42/40/17 45/44/20 46/45/20 
f 42/40/17 41/39/17 45/44/20 
s 4
f 41/39/15 47/46/15 45/44/15 
f 41/39/15 43/41/15 47/46/15 
s 2
f 43/41/14 48/47/19 47/46/19 
f 43/41/14 44/42/14 48/47/19 
s 4
f 44/42/18 46/48/18 48/47/18 
f 44/42/18 42/43/18 46/48/18 
s 2
f 46/45/20 49/49/22 50/50/22 
f 46/45/20 45/44/20 49/49/22 
s 4
f 45/44/15 51/51/15 49/49/15 
f 45/44/15 47/46/15 51/51/15 
s 2
f 47/46/19 52/52/21 51/51/21 
f 47/46/19 48/47/19 52/52/21 
s 4
f 48/47/18 50/53/18 52/52/18 
f 48/47/18 46/48/18 50/53/18 
s 2
f 50/50/22 53/54/24 54/55/24 
f 50/50/22 49/49/22 53/54/24 
s 4
f 49/49/15 55/56/15 53/54/15 
f 49/49/15 51/51/15 55/56/15 
s 2
f 51/51/21 56/57/23 55/56/23 
f 51/51/21 52/52/21 56/57/23 
s 4
f 52/52/18 54/58/18 56/57/18 
f 52/52/18 50/53/18 54/58/18 
s 2
f 54/55/24 20/59/13 17/60/13 
f 54/55/24 53/54/24 20/59/13 
s 4
f 53/54/15 22/61/15 20/59/15 
f 53/54/15 55/56/15 22/61/15 
s 2
f 55/56/23 24/62/16 22/61/16 
f 55/56/23 56/57/23 24/62/16 
s 4
f 56/57/18 17/63/18 24/62/18 
f 56/57/18 54/58/18 17/63/18 
# 80 faces

